<svg width="100" height="100" fill="none" xmlns="http://www.w3.org/2000/svg"><path opacity=".01" fill="#fff" d="M0 0h100v100H0z"/><path d="M55.345 23.92H44.063a.5.5 0 1 0 0 1h11.282a.5.5 0 1 0 0-1Z" fill="#000"/><path fill-rule="evenodd" clip-rule="evenodd" d="M73.956 64.897h9.06a4.505 4.505 0 0 1 4.5 4.5v10.109a4.505 4.505 0 0 1-4.5 4.5H62.5a4.505 4.505 0 0 1-4.5-4.5V69.397a4.505 4.505 0 0 1 4.5-4.5h10.456v-6.263a3.504 3.504 0 0 0-3.5-3.5H30.757a3.504 3.504 0 0 0-3.5 3.5v6.263h9.758a4.505 4.505 0 0 1 4.5 4.5v10.109a4.505 4.505 0 0 1-4.5 4.5H16.5a4.505 4.505 0 0 1-4.5-4.5V69.397a4.505 4.505 0 0 1 4.5-4.5h9.757v-6.263a4.505 4.505 0 0 1 4.5-4.5h18.447v-10.38h-9.706a4.505 4.505 0 0 1-4.5-4.5V19.5a4.505 4.505 0 0 1 4.5-4.5h19.754a4.505 4.505 0 0 1 4.5 4.5v19.754a4.505 4.505 0 0 1-4.5 4.5h-9.048v10.38h19.252a4.505 4.505 0 0 1 4.5 4.5v6.263Zm-33.44 4.5a3.504 3.504 0 0 0-3.5-3.5H16.5a3.504 3.504 0 0 0-3.5 3.5v10.109a3.504 3.504 0 0 0 3.5 3.5h20.515a3.504 3.504 0 0 0 3.5-3.5V69.397Zm-1.018-26.643a3.504 3.504 0 0 1-3.5-3.5V19.5a3.504 3.504 0 0 1 3.5-3.5h19.754a3.504 3.504 0 0 1 3.5 3.5v19.754a3.504 3.504 0 0 1-3.5 3.5H39.498Zm43.517 40.252a3.504 3.504 0 0 0 3.5-3.5V69.397a3.504 3.504 0 0 0-3.5-3.5H62.5a3.504 3.504 0 0 0-3.5 3.5v10.109a3.504 3.504 0 0 0 3.5 3.5h20.515Z" fill="#000"/><path d="M55.345 32.92H44.063a.5.5 0 1 0 0 1h11.282a.5.5 0 1 0 0-1ZM78.398 73.952H67.116a.5.5 0 1 0 0 1h11.282a.5.5 0 1 0 0-1ZM21.116 74.952h11.282a.5.5 0 1 0 0-1H21.116a.5.5 0 1 0 0 1Z" fill="#000"/></svg>