<svg width="100" height="100" fill="none" xmlns="http://www.w3.org/2000/svg"><path opacity=".01" fill="#fff" d="M0 0h100v100H0z"/><path fill-rule="evenodd" clip-rule="evenodd" d="m77.632 41.916 8.74-10.251a2.5 2.5 0 0 0-.815-3.951l-25.23-12.472a.5.5 0 0 0-.444.896l25.248 12.48a1.5 1.5 0 0 1 .49 2.387l-8.86 10.39-11.917-6.945a.5.5 0 1 0-.504.864l11.475 6.688-26.151 12.49-26.129-12.48 10.994-6.106a.5.5 0 1 0-.487-.874l-11.234 6.24-8.722-10.16a1.501 1.501 0 0 1 .49-2.392l24.558-12.585a.5.5 0 1 0-.457-.89L14.138 27.821a2.502 2.502 0 0 0-.798 3.956l8.539 9.949-8.592 8.096a2.5 2.5 0 0 0 .511 4.011l8.147 4.525v14.46a2.512 2.512 0 0 0 1.422 2.255l25.22 12.045a2.491 2.491 0 0 0 2.155 0l25.22-12.045a2.512 2.512 0 0 0 1.421-2.256V58.151l8.04-4.395a2.5 2.5 0 0 0 .516-4.013l-8.307-7.827Zm-64.119 9.917a1.485 1.485 0 0 1 .46-1.284l8.448-7.96 26.202 12.514-10.507 9.899a1.495 1.495 0 0 1-1.745.226l-22.09-12.271a1.483 1.483 0 0 1-.768-1.124Zm9.432 20.984c.002.578.333 1.104.853 1.354l25.22 12.045c.048.02.096.036.145.05V55.967L38.801 65.73a2.494 2.494 0 0 1-2.912.374l-12.944-7.19v13.903Zm53.438 0a1.507 1.507 0 0 1-.853 1.354L50.31 86.216c-.048.02-.097.036-.147.05v-29.73l9.758 9.194a2.495 2.495 0 0 0 2.914.374l13.548-7.406v14.12Zm8.56-19.939c.424-.228.711-.647.77-1.125a1.486 1.486 0 0 0-.46-1.282l-8.359-7.876-26.591 12.7 10.304 9.707c.472.446 1.18.537 1.749.224l22.588-12.348Z" fill="#000"/><path d="M48.31 37.756a1.508 1.508 0 0 0 2.102 0l8.163-8.006a.5.5 0 0 0-.702-.714l-8.011 7.858V12.5a.5.5 0 0 0-1 0v24.395l-8.013-7.859a.5.5 0 0 0-.701.714l8.163 8.006Z" fill="#000"/></svg>