<svg width="100" height="100" fill="none" xmlns="http://www.w3.org/2000/svg"><path opacity=".01" fill="#fff" d="M0 0h100v100H0z"/><path d="M20.131 38.55a.507.507 0 0 0 .62-.359l6.017-22.545a3.556 3.556 0 0 1 4.342-2.513l18.629 4.973a3.547 3.547 0 0 1 2.512 4.34l-1.3 4.868a.507.507 0 0 0 .36.62c.22.058.45-.04.56-.239a5.695 5.695 0 1 1 3.7 10.203 5.71 5.71 0 0 1-5.517-3.585.499.499 0 0 0-.35-.358.51.51 0 0 0-.62.358l-2.85 10.678a.507.507 0 0 0 .978.262l2.512-9.411a6.713 6.713 0 0 0 5.887 3.068 6.712 6.712 0 1 0-3.326-12.664l.944-3.538A4.559 4.559 0 0 0 50 17.127l-18.628-4.972a4.565 4.565 0 0 0-5.581 3.23l-6.017 22.544a.507.507 0 0 0 .358.62Z" fill="#000"/><path d="m84.201 25.866-22.62-5.725a.507.507 0 1 0-.249.983l22.621 5.725a3.546 3.546 0 0 1 2.567 4.308l-4.73 18.691a3.548 3.548 0 0 1-4.309 2.568l-4.883-1.236a.5.5 0 0 0-.368.925 5.694 5.694 0 1 1-6.623-1.742.48.48 0 0 0 .05-.032.482.482 0 0 0 .285-.313.507.507 0 0 0-.367-.615L54.861 46.69a.506.506 0 1 0-.249.983l9.443 2.39a6.703 6.703 0 0 0 4.062 12.277 6.687 6.687 0 0 0 5.567-9.84l3.55.898a4.56 4.56 0 0 0 5.539-3.302l4.73-18.692a4.565 4.565 0 0 0-3.302-5.54Z" fill="#000"/><path d="M79.944 60.853a.504.504 0 0 0-.616.366L73.57 83.832a3.546 3.546 0 0 1-4.313 2.562l-18.684-4.758a3.551 3.551 0 0 1-2.562-4.313l1.243-4.881a.506.506 0 0 0-.366-.616.495.495 0 0 0-.558.245 5.694 5.694 0 0 1-9.217-4.18 5.698 5.698 0 0 1 10.958-2.46c.056.219.254.372.48.371a.507.507 0 0 0 .491-.381l2.727-10.71a.506.506 0 1 0-.981-.25l-2.404 9.44a6.704 6.704 0 1 0-10.08 8.682 6.661 6.661 0 0 0 7.629.942l-.904 3.548a4.56 4.56 0 0 0 3.294 5.544l18.684 4.758c.37.095.751.143 1.133.143a4.566 4.566 0 0 0 4.411-3.436L80.31 61.47a.506.506 0 0 0-.366-.617Z" fill="#000"/><path d="m38.224 78.835-22.565-5.942a3.546 3.546 0 0 1-2.527-4.333l4.91-18.645a3.551 3.551 0 0 1 4.333-2.527l4.871 1.283a.501.501 0 0 0 .378-.92 5.694 5.694 0 0 1 4.254-9.184 5.699 5.699 0 0 1 2.365 10.982.497.497 0 0 0-.3.732c.068.116.179.2.309.235l10.687 2.814a.506.506 0 0 0 .259-.98l-9.42-2.48a6.72 6.72 0 1 0-9.604-2.529l-3.54-.933a4.56 4.56 0 0 0-5.572 3.249l-4.91 18.645a4.56 4.56 0 0 0 3.248 5.57l22.565 5.943a.507.507 0 1 0 .258-.98Z" fill="#000"/></svg>