<svg width="86" height="40" fill="none" xmlns="http://www.w3.org/2000/svg"><path d="M36.586 31.66H30.15l4.025-24.891h6.436l-4.025 24.89ZM59.916 7.377c-1.27-.503-3.283-1.06-5.772-1.06-6.356 0-10.831 3.39-10.859 8.235-.053 3.575 3.204 5.56 5.64 6.753 2.49 1.218 3.337 2.013 3.337 3.099-.026 1.667-2.012 2.436-3.865 2.436-2.57 0-3.946-.397-6.039-1.324l-.847-.398-.9 5.587c1.509.688 4.29 1.298 7.177 1.325 6.753 0 11.15-3.337 11.201-8.5.026-2.834-1.694-5.005-5.402-6.779-2.25-1.139-3.63-1.907-3.63-3.072.027-1.06 1.167-2.144 3.708-2.144 2.092-.053 3.63.45 4.794.953l.582.264.875-5.375Z" fill="#151515"/><path fill-rule="evenodd" clip-rule="evenodd" d="M71.436 6.769h4.978l5.192 24.89h-5.959s-.583-2.86-.768-3.734h-8.263l-1.35 3.734h-6.753l9.56-22.825C68.734 7.22 69.9 6.77 71.435 6.77Zm-.397 9.108S69 21.411 68.47 22.841h5.35c-.265-1.244-1.484-7.202-1.484-7.202l-.45-2.145c-.19.553-.463 1.312-.648 1.824-.125.347-.21.58-.199.56Z" fill="#151515"/><path d="m24.775 6.769-6.303 16.973-.689-3.443c-1.165-3.972-4.82-8.287-8.898-10.433l5.773 21.767h6.806L31.58 6.769h-6.805Z" fill="#151515"/><path d="M12.62 6.769H2.264l-.106.503c8.077 2.065 13.426 7.044 15.624 13.028l-2.25-11.439c-.371-1.59-1.51-2.04-2.914-2.092Z" fill="#151515"/><path opacity=".01" fill-rule="evenodd" clip-rule="evenodd" d="M0 0h86v40H0V0Z" fill="#fff"/></svg>