<svg width="120" height="40" fill="none" xmlns="http://www.w3.org/2000/svg"><path fill-rule="evenodd" clip-rule="evenodd" d="M45.739 12.096h-6.177a.858.858 0 0 0-.848.724l-2.499 15.84a.515.515 0 0 0 .51.594h2.949a.858.858 0 0 0 .848-.725l.674-4.272a.858.858 0 0 1 .847-.725h1.955c4.07 0 6.418-1.97 7.031-5.871.276-1.708.012-3.049-.788-3.988-.878-1.032-2.435-1.577-4.502-1.577Zm.712 5.785c-.337 2.216-2.03 2.216-3.669 2.216h-.932l.654-4.139a.515.515 0 0 1 .509-.434h.427c1.116 0 2.168 0 2.712.635.324.38.423.943.3 1.722Zm14.794-.071h2.958a.513.513 0 0 1 .507.594l-1.599 10.124a.858.858 0 0 1-.848.726H59.6a.515.515 0 0 1-.508-.597l.132-.822s-1.46 1.694-4.094 1.694c-1.535 0-2.825-.443-3.726-1.505-.983-1.155-1.385-2.812-1.102-4.544.544-3.473 3.336-5.949 6.604-5.949 1.426 0 2.854.311 3.494 1.24l.207.3.13-.827a.515.515 0 0 1 .51-.434Zm-1.165 5.757c-.285 1.69-1.627 2.824-3.337 2.824-.86 0-1.546-.275-1.986-.797-.438-.519-.604-1.257-.465-2.079.267-1.675 1.63-2.847 3.315-2.847.84 0 1.523.28 1.973.806.45.532.63 1.274.5 2.093Zm16.905-5.757h2.972a.515.515 0 0 1 .423.808l-9.886 14.271a.857.857 0 0 1-.706.368H66.82a.515.515 0 0 1-.42-.812l3.078-4.346-3.274-9.608a.515.515 0 0 1 .489-.681h2.92a.86.86 0 0 1 .825.612l1.737 5.803 4.1-6.039a.862.862 0 0 1 .711-.376ZM109.215 28.66l2.536-16.13a.515.515 0 0 1 .507-.435h2.854a.513.513 0 0 1 .508.595l-2.5 15.84a.857.857 0 0 1-.848.724h-2.549a.514.514 0 0 1-.508-.594ZM89.799 12.096h-6.178a.858.858 0 0 0-.847.724l-2.498 15.84a.513.513 0 0 0 .508.595h3.17a.6.6 0 0 0 .592-.508l.71-4.49a.858.858 0 0 1 .847-.725h1.954c4.07 0 6.418-1.97 7.032-5.871.277-1.707.01-3.049-.789-3.988-.877-1.032-2.433-1.577-4.5-1.577Zm.713 5.785c-.337 2.217-2.03 2.217-3.669 2.217h-.931l.655-4.14a.513.513 0 0 1 .507-.434h.428c1.114 0 2.167 0 2.711.636.324.379.423.942.3 1.721Zm14.795-.071h2.956a.515.515 0 0 1 .511.594l-1.6 10.124a.858.858 0 0 1-.847.726h-2.664a.514.514 0 0 1-.509-.597l.132-.822s-1.461 1.694-4.095 1.694c-1.534 0-2.822-.442-3.726-1.505-.982-1.155-1.382-2.812-1.1-4.544.543-3.473 3.334-5.948 6.603-5.948 1.425 0 2.852.31 3.493 1.24l.207.3.131-.828a.513.513 0 0 1 .508-.434Zm-1.167 5.757c-.284 1.69-1.627 2.824-3.337 2.824-.858 0-1.546-.275-1.987-.797-.437-.519-.601-1.257-.464-2.079.268-1.675 1.63-2.847 3.315-2.847.84 0 1.523.28 1.973.806.452.532.631 1.274.5 2.093Z" fill="#151515"/><path d="m10.563 32.333.472-3-1.052-.025H4.958L8.45 7.167a.285.285 0 0 1 .284-.242h8.472c2.813 0 4.754.585 5.767 1.74.475.542.778 1.109.924 1.732.154.654.157 1.435.007 2.388l-.011.07v.61l.475.27c.363.183.689.432.962.733.406.463.67 1.052.78 1.75.115.718.077 1.573-.11 2.54-.218 1.113-.568 2.082-1.041 2.875a5.913 5.913 0 0 1-1.649 1.806c-.628.447-1.375.785-2.22 1.002-.818.213-1.751.32-2.775.32h-.659a2 2 0 0 0-1.289.475 1.997 1.997 0 0 0-.672 1.2l-.05.27-.834 5.288-.038.194c-.01.062-.027.092-.052.113a.14.14 0 0 1-.087.032h-4.071Z" fill="#253B80"/><path d="M24.817 12.925a14.87 14.87 0 0 1-.086.497c-1.118 5.736-4.94 7.718-9.822 7.718h-2.486c-.597 0-1.1.433-1.193 1.022l-1.272 8.072-.36 2.287a.636.636 0 0 0 .627.736h4.409c.522 0 .965-.38 1.047-.895l.044-.224.83-5.267.053-.29a1.06 1.06 0 0 1 1.048-.895h.66c4.27 0 7.614-1.734 8.591-6.753.409-2.096.197-3.847-.883-5.078a4.215 4.215 0 0 0-1.207-.93Z" fill="#636363"/><path d="M23.649 12.459a8.806 8.806 0 0 0-1.087-.241 13.808 13.808 0 0 0-2.19-.16H13.73c-.523 0-.967.38-1.047.896L11.27 21.9l-.04.261a1.207 1.207 0 0 1 1.193-1.022h2.485c4.882 0 8.705-1.983 9.822-7.718.033-.17.061-.335.087-.497a5.949 5.949 0 0 0-.919-.387 7.876 7.876 0 0 0-.25-.079Z" fill="#393939"/><path d="M12.684 12.954c.08-.516.524-.897 1.046-.895h6.64c.788 0 1.522.051 2.192.16.454.071.9.178 1.338.319.33.109.636.238.918.387.333-2.12-.002-3.563-1.149-4.87C22.407 6.616 20.125 6 17.207 6H8.735a1.21 1.21 0 0 0-1.197 1.023L4.009 29.392a.728.728 0 0 0 .718.841h5.23l1.314-8.332 1.412-8.947Z" fill="#151515"/><path opacity=".01" fill-rule="evenodd" clip-rule="evenodd" d="M0 0h120v40H0V0Z" fill="#fff"/></svg>