<svg width="100" height="100" fill="none" xmlns="http://www.w3.org/2000/svg"><path opacity=".01" fill="#fff" d="M0 0h100v100H0z"/><path fill-rule="evenodd" clip-rule="evenodd" d="M84.461 13.591v.003c.762 16.87-4.127 30.027-14.522 39.12.324 1.397 1.393 7.33-2.654 11.564a144.985 144.985 0 0 1-4.442 4.47 2.496 2.496 0 0 1-2.198.662 2.5 2.5 0 0 1-1.825-1.39l-3.302-6.854a41.28 41.28 0 0 1-8.701 2.268l-.24.028-12.4-12.369.026-.24a41.384 41.384 0 0 1 2.258-8.742c-.877-.376-2.737-1.266-6.87-3.243l-.007-.004a2.525 2.525 0 0 1-.74-4.02 145.528 145.528 0 0 1 4.458-4.455c4.222-4.06 10.159-3.007 11.556-2.687 9.072-10.43 22.229-15.358 39.125-14.632.022.004.043.01.065.016.17.02.315.135.374.296.01.03.016.06.02.09.008.024.013.05.017.076l.001.037.001.006ZM68.94 52.321a.494.494 0 0 1 .14-.174c10.21-8.813 15.046-21.63 14.394-38.088-16.466-.601-29.263 4.267-38.046 14.502l-.018.02-.003.002a.496.496 0 0 1-.161.12.476.476 0 0 1-.049.017.489.489 0 0 1-.155.034.042.042 0 0 1-.013.002.494.494 0 0 1-.062-.01.483.483 0 0 1-.068-.005c-.065-.019-6.61-1.758-10.903 2.369a144.16 144.16 0 0 0-4.426 4.424 1.524 1.524 0 0 0 .446 2.428l7.272 3.479.416.196-.16.431a43.187 43.187 0 0 0-2.315 8.662l11.71 11.68a43.203 43.203 0 0 0 8.655-2.34c.455-.106.456-.105 4.081 7.42l.047.096a1.525 1.525 0 0 0 2.43.44 143.597 143.597 0 0 0 4.411-4.44c4.116-4.304 2.357-10.843 2.338-10.909a.484.484 0 0 1-.009-.125.167.167 0 0 0-.002-.021c0-.01-.002-.019-.001-.029a.488.488 0 0 1 .043-.158c.003-.008.004-.016.008-.024Z" fill="#000"/><path fill-rule="evenodd" clip-rule="evenodd" d="M53.445 36.597a7.797 7.797 0 0 1 7.797-7.797 7.807 7.807 0 0 1 7.797 7.798 7.797 7.797 0 0 1-15.594 0Zm1.517 2.602a6.797 6.797 0 0 0 6.28 4.196 6.805 6.805 0 0 0 6.797-6.797 6.797 6.797 0 1 0-13.077 2.6Z" fill="#000"/><path d="M38.82 65.77a.5.5 0 1 0-.514.859 6.396 6.396 0 0 1 2.923 5.395 8.547 8.547 0 0 1-2.49 5.87 12.834 12.834 0 0 1-5.71 3.288c-.952.277-1.953.475-2.921.667l-.808.162a65.54 65.54 0 0 0-10.44 3.063c-.132.05-.265.108-.397.172a1.52 1.52 0 0 1-1.375-.02 1.27 1.27 0 0 1-.677-.964 17.61 17.61 0 0 1 .22-5.946 26.019 26.019 0 0 1 3.422-8.312c.757-1.24.786-2.276.081-2.843a2.094 2.094 0 0 0-1.128-.379l-3.236-.37a1.757 1.757 0 0 1-.267-.044c-.003-.008-.026-.094.083-.381a13.639 13.639 0 0 1 6.348-7.634c3.14-1.535 7.071-.988 9.144 1.275a.5.5 0 0 0 .737-.676c-2.399-2.619-6.739-3.25-10.32-1.497a14.626 14.626 0 0 0-6.843 8.175c-.224.441-.191.969.085 1.379.245.245.573.387.92.397l3.236.37c.215.004.425.06.614.164.314.252.047.963-.307 1.543a27.021 27.021 0 0 0-3.55 8.635 18.62 18.62 0 0 0-.23 6.283 2.28 2.28 0 0 0 1.195 1.706c.362.193.765.293 1.175.292.383 0 .762-.086 1.107-.252.107-.052.215-.098.322-.14A64.578 64.578 0 0 1 29.5 82.99l.802-.16c.99-.196 2.013-.4 3.007-.688a13.829 13.829 0 0 0 6.151-3.555 9.553 9.553 0 0 0 2.769-6.57 7.415 7.415 0 0 0-3.41-6.247Z" fill="#000"/></svg>