<svg width="34" height="21" fill="none" xmlns="http://www.w3.org/2000/svg"><path fill-rule="evenodd" clip-rule="evenodd" d="M26.893 5.59v3.603h-3.698v2.523h3.698v3.604h2.773v-3.604h3.698V9.103h-3.698V5.59h-2.773ZM10.624 8.383v4.054h5.546c-.37 2.342-2.495 4.054-5.546 4.054-3.327 0-6.1-2.793-6.1-6.036 0-3.244 2.68-6.036 6.1-6.036 1.572 0 2.866.45 3.975 1.531l2.958-2.883C15.708 1.446 13.397.455 10.624.455c-5.638 0-10.26 4.504-10.26 10 0 5.495 4.622 10 10.26 10 6.009 0 9.891-4.145 9.891-9.82 0-.721-.093-1.532-.185-2.252h-9.706Z" fill="#fff"/></svg>