<svg width="29" height="24" fill="none" xmlns="http://www.w3.org/2000/svg"><path fill-rule="evenodd" clip-rule="evenodd" d="M8.897 23.455c10.566 0 16.344-8.848 16.344-16.52 0-.252-.005-.502-.016-.751a11.758 11.758 0 0 0 2.866-3.007c-1.03.463-2.137.774-3.3.915A5.816 5.816 0 0 0 27.319.88a11.438 11.438 0 0 1-3.648 1.409A5.71 5.71 0 0 0 19.477.455c-3.173 0-5.746 2.6-5.746 5.805 0 .456.05.9.15 1.324C9.105 7.342 4.873 5.031 2.04 1.518a5.834 5.834 0 0 0-.778 2.918A5.818 5.818 0 0 0 3.818 9.27a5.658 5.658 0 0 1-2.602-.726l-.001.074c0 2.812 1.98 5.16 4.609 5.692a5.703 5.703 0 0 1-2.595.1c.732 2.307 2.852 3.985 5.367 4.033a11.45 11.45 0 0 1-7.135 2.485c-.463 0-.92-.027-1.37-.08a16.137 16.137 0 0 0 8.806 2.608" fill="#fff"/></svg>